<?xml version="1.0" encoding="utf-8"?>
<!-- Generator: Adobe Illustrator 24.1.1, SVG Export Plug-In . SVG Version: 6.00 Build 0)  -->
<svg version="1.1" id="Objects" xmlns="http://www.w3.org/2000/svg" xmlns:xlink="http://www.w3.org/1999/xlink" x="0px" y="0px"
	 viewBox="0 0 89.9 75.9" style="enable-background:new 0 0 89.9 75.9;" xml:space="preserve">
<style type="text/css">
	.st0{fill:#1B191C;}
</style>
<path class="st0" d="M8.7,26.5h15.5v45.6H8.7V26.5z M16.5,3.8c5,0,9,3.7,9,8.2c0,4.5-4,8.2-9,8.2c-5,0-9-3.7-9-8.2
	C7.5,7.5,11.5,3.8,16.5,3.8 M34,72.1h15.5V49.5c0-5.9,1.2-11.7,9.3-11.7c8,0,8.1,6.8,8.1,12.1v22.2h15.5v-25
	c0-12.3-2.9-21.7-18.6-21.7c-7.6,0-12.6,3.8-14.7,7.4h-0.2v-6.2H34V72.1z"/>
</svg>
