<?xml version="1.0" encoding="utf-8"?>
<!-- Generator: Adobe Illustrator 24.1.1, SVG Export Plug-In . SVG Version: 6.00 Build 0)  -->
<svg version="1.1" id="Objects" xmlns="http://www.w3.org/2000/svg" xmlns:xlink="http://www.w3.org/1999/xlink" x="0px" y="0px"
	 viewBox="0 0 89.9 75.9" style="enable-background:new 0 0 89.9 75.9;" xml:space="preserve">
<style type="text/css">
	.st0{fill:#1B191C;}
</style>
<path class="st0" d="M31.8,69.3c26.7,0,41.3-24.2,41.3-45.1c0-0.6,0-1.4-0.1-2c2.9-2.2,5.3-5.1,7.2-8.2c-2.6,1.3-5.4,2.1-8.3,2.5
	c3-1.9,5.3-5.1,6.4-8.7c-2.8,1.8-5.9,3.1-9.2,3.9c-2.6-3-6.4-5-10.6-5c-8-0.1-14.5,7-14.5,15.7c0,1.3,0.2,2.5,0.3,3.6
	c-12-0.6-22.7-7-29.9-16.6c-1.2,2.4-1.9,5.1-1.9,8c0,5.5,2.5,10.4,6.5,13.2c-2.4-0.1-4.6-0.8-6.6-2c0,0.1,0,0.1,0,0.2
	c0,7.6,5,14.1,11.6,15.6c-1.2,0.4-2.5,0.6-3.8,0.6c-0.9,0-1.9-0.1-2.7-0.3c1.9,6.3,7.2,10.9,13.6,11c-5,4.2-11.2,6.8-18,6.8
	c-1.2,0-2.4-0.1-3.5-0.2C16,66.7,23.6,69.3,31.8,69.3"/>
</svg>
